# xmcd
#
# Track frame offsets: 
#        150
#        13890
#        27415
#        37441
#        49729
#        62796
#        76046
#        88935
#        102726
#        114412
#        128569
#        141658
#
# Disc length: 2044 seconds
#
# Revision: 0
# Processed by: cddbd v1.5.2PL0 Copyright (c) Steve Scherf et al.
# Submitted via: ExactAudioCopy v1.0b4
#
DISCID=af07fa0c
DTITLE=Roy Brown - Hard Luck Blues (LP)
DYEAR=1979
DGENRE=Blues
TTITLE0=Hard Luck Blues
TTITLE1=Good Rockin' Man
TTITLE2=Ain't It A Shame
TTITLE3=Love Don't Love Nobody
TTITLE4=I've Got The Last Laugh Now
TTITLE5=Trouble At Midnight
TTITLE6=Boogie At Midnight
TTITLE7=Travelin' Man
TTITLE8=Ain't Got No Blues Today
TTITLE9=Wrong Woman Blues
TTITLE10=Queen Of Diamonds
TTITLE11=Worried Life Blues
EXTD=
EXTT0=
EXTT1=
EXTT2=
EXTT3=
EXTT4=
EXTT5=
EXTT6=
EXTT7=
EXTT8=
EXTT9=
EXTT10=
EXTT11=
PLAYORDER=
